<svg viewBox="0 0 598 421" fill="none" xmlns="http://www.w3.org/2000/svg">
    <path d="M553.7 273.4C573.7 226.58 560.86 162.63 524 162.63C477.86 162.63 525 272.63 558.38 268.63"
        fill="#03566E" />
    <path d="M405.94 267.79C435.51 264.74 484.15 162.21 444.34 162.21C405.44 162.21 391.91 223.87 411.17 270.43"
        fill="#024F6D" />
    <path d="M360 77V105.34" stroke="url(#paint0_linear_101_2)" stroke-width="6" stroke-miterlimit="10"
        stroke-linecap="round" />
    <path
        d="M355.42 112.6C355.42 116.98 357.48 119.52 359.85 119.51C362.53 119.51 364.22 116.51 364.2 112.43C364.18 108.35 362.66 105.6 359.77 105.62C357.7 105.63 355.39 108.52 355.42 112.6Z"
        stroke="url(#paint1_linear_101_2)" stroke-width="6" stroke-linecap="round" stroke-linejoin="round" />
    <path d="M481.86 135.58C493.41 122.45 491.95 105.21 483.86 105.21C474.8 105.21 470.55 122.79 482.4 135.97"
        fill="#03496C" />
    <path
        d="M171.73 277.06C182.49 277.41 194.12 277.21 202.22 277.21H203.38C205.67 277.21 160.65 346.79 141.49 346.79C126.73 346.79 138.94 323.58 178.96 323.58"
        stroke="url(#paint2_linear_101_2)" stroke-width="3" stroke-miterlimit="10" stroke-linecap="round" />
    <path
        d="M10.08 56.63C26.75 66 166 79.63 166 63.63C166 43.63 10.09 32.63 10.09 116.63C10.09 176.63 137.65 178.63 137.65 163.29C137.65 147.29 10.09 145.96 10.09 239.96C10.09 350.63 174.48 340.96 174.48 275.96C174.48 260.06 143.73 261.71 143.73 270.46C143.73 275.03 156.91 276.57 171.73 277.06"
        stroke="url(#paint3_linear_101_2)" stroke-width="6" stroke-miterlimit="10" stroke-linecap="round" />
    <path
        d="M174.49 172.63C207.82 165.29 255.61 49.46 226.72 49.46C192.27 49.46 178.48 267.46 214.18 267.46C232.02 267.46 239.69 162.96 239.69 162.96C239.69 162.96 243.81 267.46 259.53 267.46C275.47 267.46 274.58 162.46 290.71 162.46C307.91 162.46 307.71 267.46 307.71 267.46C307.71 267.46 314.07 162.46 330.39 162.46C346.71 162.46 353.06 267.46 353.06 267.46C353.06 267.46 355.06 162.46 370.06 162.46C384.9 162.46 386.06 238.69 389.7 251.77C408.2 317.77 493.2 162.46 444.2 162.46C381.7 162.46 384.7 321.58 483.88 321.58C580.2 321.58 581.7 162.46 523.57 162.46C468.7 162.46 545.7 317.96 574.7 252.46"
        stroke="url(#paint4_linear_101_2)" stroke-width="6" stroke-linecap="round" stroke-linejoin="round" />
    <path
        d="M475.22 61C430.22 33.5 395.75 62 395.75 103.5C395.75 124.44 406.22 151 444.22 151C492.72 151 496.9 106 483.9 106C469.4 106 467.22 151 523.59 151C560.22 151 571.78 124 571.78 103.5C571.78 46.5 503.22 45 503.22 57C503.22 66.5 542.22 67 587.72 58"
        stroke="url(#paint5_linear_101_2)" stroke-width="6" stroke-linecap="round" stroke-linejoin="round" />
    <path
        d="M200.28 316.05C201.05 315.41 200.92 317.33 200.6 317.65C200.28 317.97 195.35 322.9 191.32 323.47C188.05 323.92 185.94 322.77 185.11 320.4C184.11 317.84 185.49 314.26 188.5 311.5C195.61 305.04 200.41 307.79 195.22 313.81C192.719 316.173 189.962 318.25 187 320C187.44 322 189.68 322.75 194.74 320.25C196.75 319.08 198.611 317.67 200.28 316.05ZM192.79 313.68C197.27 309.33 195.09 308.24 190.61 312.21C188.974 313.73 187.761 315.65 187.09 317.78C189.134 316.626 191.046 315.251 192.79 313.68V313.68Z"
        fill="url(#paint6_linear_101_2)" stroke="url(#paint7_linear_101_2)" stroke-width="0.5" stroke-miterlimit="10" />
    <path
        d="M205.91 310.74C205.521 309.875 205.41 308.911 205.59 307.98C206.04 305.62 208.72 303.63 210.2 303.89C211.68 304.15 211.73 305.36 210.71 307.28C209.86 308.636 208.875 309.903 207.77 311.06C208.77 312.46 210.33 313.94 210.39 316.37C210.485 317.886 210.2 319.402 209.56 320.78C211.834 319.464 213.94 317.876 215.83 316.05C216.6 315.41 216.47 317.33 216.15 317.65C215.83 317.97 211.29 322.65 207.77 323.15C206.894 323.824 205.862 324.264 204.77 324.43C201.25 324.88 199.01 321.43 199.14 317.9C199.2 314.58 201 314.19 201.57 314.9C202.84 313.81 204.44 312.27 205.91 310.74ZM201.43 317.33C200.21 319.12 201.62 322.58 204.05 322.77C204.385 322.81 204.724 322.787 205.05 322.7C202.13 321.36 201.56 317.14 201.43 317.33ZM208.43 317.58C208.43 315.47 207.43 313.81 206.57 312.21C205.1 313.68 203.5 315.15 202.29 316.21C203.29 318 205.17 320.88 207.29 321.21C208.064 320.159 208.478 318.885 208.47 317.58H208.43ZM209.26 306.19C209.13 305.49 207.53 305.68 206.89 308.19C206.726 308.671 206.751 309.197 206.96 309.66C208.41 308.11 209.43 306.71 209.3 306.19H209.26Z"
        fill="url(#paint8_linear_101_2)" stroke="url(#paint9_linear_101_2)" stroke-width="0.5" stroke-miterlimit="10" />
    <path
        d="M221.46 310.74C221.071 309.875 220.96 308.911 221.14 307.98C221.59 305.62 224.28 303.63 225.75 303.89C227.22 304.15 227.28 305.36 226.26 307.28C225.41 308.636 224.425 309.903 223.32 311.06C224.32 312.46 225.88 313.94 225.94 316.37C226.035 317.886 225.75 319.402 225.11 320.78C227.386 319.467 229.492 317.878 231.38 316.05C232.15 315.41 232.02 317.33 231.7 317.65C231.38 317.97 226.84 322.65 223.32 323.15C222.461 323.82 221.446 324.26 220.37 324.43C216.85 324.88 214.61 321.43 214.74 317.9C214.81 314.58 216.6 314.19 217.17 314.9C218.39 313.81 220 312.27 221.46 310.74ZM217 317.33C215.79 319.12 217.19 322.58 219.63 322.77C219.965 322.811 220.304 322.787 220.63 322.7C217.69 321.36 217.11 317.14 217 317.33ZM224 317.58C224 315.47 223 313.81 222.14 312.21C220.67 313.68 219.07 315.15 217.86 316.21C218.86 318 220.74 320.88 222.86 321.21C223.62 320.154 224.02 318.881 224 317.58V317.58ZM224.83 306.19C224.7 305.49 223.1 305.68 222.47 308.19C222.382 308.427 222.342 308.679 222.353 308.931C222.363 309.183 222.423 309.431 222.53 309.66C224 308.11 225 306.71 224.85 306.19H224.83Z"
        fill="url(#paint10_linear_101_2)" stroke="url(#paint11_linear_101_2)" stroke-width="0.5"
        stroke-miterlimit="10" />
    <path
        d="M233.56 321.23C235.09 321.36 237.33 320.23 242.13 316.05C242.84 315.41 242.71 317.33 242.45 317.65C242.19 317.97 235.45 324.94 231.51 322.19C229.51 320.78 230.29 317.33 232.98 313.55C234.139 311.756 235.422 310.045 236.82 308.43C237.63 307.62 239.09 308.92 237.82 310.16C235.924 312.5 234.276 315.031 232.9 317.71C232 319.89 232.21 321.1 233.56 321.23ZM240.98 303.63C240.482 303.401 239.914 303.377 239.399 303.565C238.885 303.752 238.464 304.135 238.23 304.63C237.78 305.52 237.84 306.8 238.8 307.12C240.79 307.86 242.71 304.4 241 303.63H240.98Z"
        fill="url(#paint12_linear_101_2)" stroke="url(#paint13_linear_101_2)" stroke-width="0.5"
        stroke-miterlimit="10" />
    <path
        d="M246 310.42C251.18 306.19 256.24 307.22 255.6 310.29C255.21 311.82 253.42 313.29 252.91 313.68C252.24 314.35 251.2 313.15 252.33 312.02C254 310.61 253.33 308.75 251.56 309.2C250.28 309.52 246.83 311.82 245.04 314.45C240.43 321.3 247.47 325.14 257.71 316.05C258.48 315.41 258.35 317.33 258.09 317.65C257.83 317.97 253.36 322.58 249.39 323.09C246.06 323.6 243.31 322.9 242.03 320.72C241.11 319 240.34 315 246 310.42Z"
        fill="url(#paint14_linear_101_2)" stroke="url(#paint15_linear_101_2)" stroke-width="0.5"
        stroke-miterlimit="10" />
    <path
        d="M272.08 323.47C268.82 323.98 266.84 321.74 267.8 318.54C263 323.54 261.27 323.98 259.22 323.66C256.85 323.28 255.22 319.57 258.71 314.66C262.2 309.75 266.84 308.33 268.56 308.33C269.317 308.319 270.053 308.577 270.638 309.056C271.224 309.535 271.621 310.206 271.76 310.95C272.097 310.462 272.509 310.031 272.98 309.67C274.98 307.67 276.06 309.67 274.84 310.88C274.7 311.02 273.17 312.74 271.7 314.34C267.6 320.61 269.52 322.92 275.41 319.97C277.454 318.93 279.348 317.618 281.04 316.07C281.81 315.43 282.68 316.35 281.36 317.67C281 318 276.12 322.83 272.08 323.47ZM269.84 313.55H269.78C269.78 313.55 270.93 310.35 268.31 310.35C262.55 310.35 256.47 320.53 259.8 321.35C262.93 322.18 268.8 314.82 269.2 314.44L269.84 313.55Z"
        fill="url(#paint16_linear_101_2)" stroke="url(#paint17_linear_101_2)" stroke-width="0.5"
        stroke-miterlimit="10" />
    <path
        d="M305.68 321.68C312.47 321.68 318.35 314.58 318.1 310.48C317.59 303.76 304.27 305.36 304.27 298.19C304.27 292.63 314.07 288.79 318.42 287.51C323.54 286.03 333.65 285.71 327.31 292.95C325.78 294.8 323.18 296.53 321.81 296.53C319.22 296.53 320.81 295.25 321.04 295.19C324.18 294.55 327.63 290.71 327.31 289.49C327.12 288.66 325.31 288.49 323.31 288.72C317.977 289.369 312.917 291.442 308.66 294.72C304.94 297.66 306.66 300.22 309.81 301.72C311.98 302.81 314.74 303.58 316.72 304.54C321.52 306.91 321.78 312.09 318.32 316.7C316.08 319.58 312.18 323.42 306.1 323.93C295.73 324.7 290.29 312.35 296.18 305.31C298.32 303.17 299.63 304.22 298.18 305.69C293.46 311.7 296.47 321.68 305.68 321.68Z"
        fill="url(#paint18_linear_101_2)" stroke="url(#paint19_linear_101_2)" stroke-width="0.5"
        stroke-miterlimit="10" />
    <path
        d="M327.12 310.42C332.31 306.19 337.36 307.22 336.72 310.29C336.34 311.82 334.55 313.29 334.03 313.68C333.71 313.94 331.8 313.68 333.46 312.02C335.12 310.61 334.46 308.75 332.69 309.2C330.077 310.325 327.82 312.14 326.16 314.45C321.56 321.3 328.59 325.14 338.83 316.05C339.6 315.41 339.47 317.33 339.22 317.65C338.97 317.97 334.48 322.58 330.51 323.09C327.19 323.6 324.43 322.9 323.16 320.72C322.2 319 321.43 315 327.12 310.42Z"
        fill="url(#paint20_linear_101_2)" stroke="url(#paint21_linear_101_2)" stroke-width="0.5"
        stroke-miterlimit="10" />
    <path
        d="M342.74 314.07C346.58 310.55 352.59 306.51 354.58 308.31C356.24 309.78 353.58 313.55 351.12 316.75C348.66 319.95 350.29 321.17 351.63 321.3C352.97 321.43 355.15 320.3 359.95 316.05C360.72 315.41 360.59 317.33 360.27 317.65C359.95 317.97 354.71 323.28 351.57 323.15C350.632 323.143 349.731 322.785 349.044 322.146C348.358 321.508 347.935 320.635 347.86 319.7C347.67 317.46 348.63 316.43 350.99 313.62C353.62 310.48 352.85 308.56 349.2 311.25C343.44 315.41 338.5 323.34 337.68 323.34C335.97 323.34 336.21 321.68 337.04 320.08C346.51 300.31 352.34 293.52 356.75 290.64C362.9 286.64 364.88 290.71 360.27 296.02C354.887 302.243 349.094 308.099 342.93 313.55L342.74 314.07ZM360.53 291.07C360.02 290.55 357.97 290.75 351.53 298.75C348.776 302.07 346.454 305.726 344.62 309.63C350.48 304.34 362.06 292.37 360.53 291V291.07Z"
        fill="url(#paint22_linear_101_2)" stroke="url(#paint23_linear_101_2)" stroke-width="0.5"
        stroke-miterlimit="10" />
    <path
        d="M367.57 318.86C365.97 320.66 362.83 323.34 361.23 323.54C359.63 323.74 358.48 322.19 358.87 318.99C359.38 314.83 364.81 310.1 365.46 309.46C366.65 308.27 367.68 309.67 367.06 310.29C365.1 312.347 363.382 314.622 361.94 317.07C361.11 318.61 360.15 320.85 361.04 321.36C362.32 322.19 367.63 317.01 369.87 313.55C370.792 312.214 371.819 310.953 372.94 309.78C374.01 308.71 375.22 309.78 374.22 311.17C373.98 311.5 373.71 311.89 371.92 314.07C370.13 316.25 367.25 323.02 371.28 321.62C373.9 320.62 381.14 311.25 382.48 307.86C383.14 306.63 384.48 307.42 383.63 309.26C383.18 310.8 375.38 324.05 370.19 323.92C367.38 323.86 367.31 320.34 367.5 319.18L367.57 318.86Z"
        fill="url(#paint24_linear_101_2)" stroke="url(#paint25_linear_101_2)" stroke-width="0.5"
        stroke-miterlimit="10" />
    <path
        d="M397.07 316.05C397.84 315.41 397.71 317.33 397.39 317.65C397.07 317.97 392.14 322.9 388.11 323.47C384.85 323.92 382.74 322.77 381.91 320.4C380.91 317.84 382.29 314.26 385.3 311.5C392.4 305.04 397.2 307.79 392.02 313.81C389.508 316.182 386.737 318.265 383.76 320.02C384.21 322.02 386.45 322.77 391.5 320.27C393.525 319.101 395.397 317.683 397.07 316.05V316.05ZM389.58 313.68C394.06 309.33 391.89 308.24 387.41 312.21C385.771 313.728 384.557 315.648 383.89 317.78C385.932 316.628 387.841 315.253 389.58 313.68Z"
        fill="url(#paint26_linear_101_2)" stroke="url(#paint27_linear_101_2)" stroke-width="0.5"
        stroke-miterlimit="10" />
    <path
        d="M399.25 321.23C400.78 321.36 403.02 320.23 407.82 316.05C408.53 315.41 408.4 317.33 408.14 317.65C407.88 317.97 401.14 324.94 397.2 322.19C395.15 320.78 395.98 317.33 398.67 313.55C400.85 310.35 402.06 308.75 402.51 308.43C402.96 308.11 404.51 308.59 403.51 310.16C403.06 310.87 399.51 315.54 398.58 317.71C397.65 319.88 397.9 321.1 399.25 321.23ZM406.67 303.63C406.172 303.401 405.604 303.377 405.089 303.565C404.575 303.752 404.154 304.135 403.92 304.63C403.47 305.52 403.54 306.8 404.5 307.12C406.48 307.86 408.4 304.4 406.67 303.63Z"
        fill="url(#paint28_linear_101_2)" stroke="url(#paint29_linear_101_2)" stroke-width="0.5"
        stroke-miterlimit="10" />
    <path
        d="M419.79 308.37C412.5 306.83 404.37 318.16 407.7 322.13C409.87 324.75 413.58 322.64 417.55 319.06L422.16 310.61C421.979 310.071 421.668 309.585 421.255 309.194C420.841 308.804 420.338 308.521 419.79 308.37V308.37ZM411.73 320.85C405.84 323.34 411.6 310.61 418.58 310.16C420.05 310.03 420.75 311.25 420.75 312.72C418.676 316.313 415.519 319.159 411.73 320.85V320.85Z"
        fill="url(#paint30_linear_101_2)" stroke="url(#paint31_linear_101_2)" stroke-width="0.5"
        stroke-miterlimit="10" />
    <path d="M411.44 330.31H547C547 330.31 555.5 329.88 555.5 337.39C555.5 344.63 547.08 344.48 547.08 344.48H415.44"
        stroke="url(#paint32_linear_101_2)" stroke-width="3" stroke-miterlimit="10" stroke-linecap="round" />
    <path d="M423.67 310.6C423.67 310.6 401.72 349.29 384.09 349.29C373.44 349.29 378.22 331.09 415.44 330.29"
        stroke="url(#paint33_linear_101_2)" stroke-width="3" stroke-miterlimit="10" stroke-linecap="round" />
    <path d="M546.39 337.39H422.39" stroke="url(#paint34_linear_101_2)" stroke-width="3" stroke-miterlimit="10"
        stroke-linecap="round" />
    <path
        d="M235.82 141.51C234.34 147.22 236.11 151.23 239.2 152.03C242.69 152.94 245.92 149.65 247.31 144.32C248.7 138.99 247.67 134.91 243.9 133.93C241.22 133.23 237.21 136.19 235.82 141.51Z"
        stroke="url(#paint35_linear_101_2)" stroke-width="6" stroke-linecap="round" stroke-linejoin="round" />
    <path d="M382.6 76.33H344.22L400.27 10.09H482.47L462.72 35.96" stroke="url(#paint36_linear_101_2)" stroke-width="6"
        stroke-linecap="round" stroke-linejoin="round" />
    <path d="M457.53 43.71C426.01 33.71 401.41 50.07 391.83 76.25" stroke="url(#paint37_linear_101_2)" stroke-width="6"
        stroke-linecap="round" stroke-linejoin="round" />
    <path
        d="M420.06 100.28C420.13 111.89 428.66 118.61 438.6 118.55C449.86 118.49 456.97 110.55 456.9 99.73C456.84 89.06 450.5 81.63 438.37 81.73C429.71 81.76 420 89.44 420.06 100.28Z"
        stroke="url(#paint38_linear_101_2)" stroke-width="6" stroke-linecap="round" stroke-linejoin="round" />
    <path
        d="M504.06 98.61C504.13 110.23 512.66 116.95 522.6 116.89C533.86 116.82 540.97 108.89 540.9 98.06C540.84 87.39 534.5 79.97 522.37 80.06C513.71 80.09 504 87.77 504.06 98.61Z"
        stroke="url(#paint39_linear_101_2)" stroke-width="6" stroke-linecap="round" stroke-linejoin="round" />
    <path
        d="M430.31 100C430.27 101.129 430.465 102.255 430.882 103.305C431.3 104.355 431.931 105.307 432.736 106.101C433.54 106.894 434.501 107.512 435.557 107.914C436.613 108.317 437.741 108.496 438.87 108.44C444.07 108.44 447.35 104.75 447.32 99.75C447.29 94.75 444.32 91.4 438.76 91.43C436.524 91.5111 434.404 92.4436 432.833 94.0368C431.262 95.6299 430.36 97.7632 430.31 100V100Z"
        fill="url(#paint40_linear_101_2)" stroke="url(#paint41_linear_101_2)" stroke-width="5" stroke-linecap="round"
        stroke-linejoin="round" />
    <path
        d="M434.2 99.74C434.173 100.487 434.301 101.232 434.577 101.927C434.853 102.623 435.27 103.253 435.802 103.778C436.334 104.304 436.969 104.713 437.668 104.98C438.367 105.247 439.113 105.366 439.86 105.33"
        stroke="white" stroke-width="4" stroke-linecap="round" stroke-linejoin="round" />
    <path
        d="M514 98.7C513.96 99.8281 514.154 100.952 514.571 102.001C514.989 103.05 515.619 104.001 516.423 104.794C517.227 105.586 518.186 106.203 519.241 106.605C520.296 107.007 521.423 107.186 522.55 107.13C527.75 107.13 531.03 103.45 531 98.45C530.97 93.45 528 90.09 522.45 90.13C520.213 90.2087 518.092 91.1405 516.52 92.7341C514.949 94.3278 514.047 96.4624 514 98.7Z"
        fill="url(#paint42_linear_101_2)" stroke="url(#paint43_linear_101_2)" stroke-width="5" stroke-linecap="round"
        stroke-linejoin="round" />
    <path
        d="M517.86 98.41C517.834 99.1579 517.964 99.903 518.241 100.598C518.518 101.293 518.936 101.924 519.469 102.449C520.001 102.974 520.638 103.383 521.337 103.65C522.036 103.917 522.783 104.036 523.53 104"
        stroke="white" stroke-width="4" stroke-linecap="round" stroke-linejoin="round" />
    <path
        d="M64 364.06C63.9661 363.942 63.9659 363.816 63.9995 363.698C64.033 363.58 64.099 363.473 64.19 363.39C64.3726 363.239 64.6029 363.157 64.84 363.16C65.1059 363.169 65.3646 363.249 65.59 363.39C65.7093 363.463 65.8119 363.561 65.8911 363.676C65.9704 363.792 66.0245 363.922 66.05 364.06C66.16 366.89 66.15 369.72 66.05 372.56C65.95 375.4 65.8 378.23 65.63 381.06C65.46 383.89 65.32 386.71 65.21 389.53C65.1 392.35 65.09 395.18 65.21 398C65.2275 398.204 65.1904 398.408 65.1025 398.593C65.0146 398.777 64.8792 398.935 64.71 399.05C64.5728 399.143 64.4127 399.197 64.247 399.206C64.0813 399.215 63.9164 399.178 63.77 399.1C62.67 397.767 61.5733 396.417 60.48 395.05C59.39 393.66 58.27 392.31 57.1 391.05C55.67 389.49 54.23 387.94 52.8 386.4C51.37 384.86 49.93 383.24 48.49 381.52C46.43 379.373 44.3667 377.2 42.3 375C40.2333 372.8 38.2333 370.54 36.3 368.22C35.9733 373.167 35.7867 378.133 35.74 383.12C35.6933 388.107 35.8267 393.067 36.14 398C36.1885 398.148 36.1993 398.307 36.1714 398.46C36.1434 398.614 36.0777 398.758 35.98 398.88C35.8999 398.977 35.7991 399.056 35.6849 399.109C35.5708 399.163 35.4461 399.191 35.32 399.19C35.04 399.184 34.7725 399.073 34.57 398.88C34.3151 398.648 34.143 398.339 34.08 398C33.7533 392.667 33.62 387.273 33.68 381.82C33.74 376.367 33.97 370.97 34.37 365.63C34.371 365.406 34.4353 365.186 34.5557 364.997C34.676 364.808 34.8473 364.656 35.05 364.56C35.2184 364.438 35.4262 364.382 35.6331 364.404C35.84 364.427 36.0314 364.525 36.17 364.68C38.2878 367.57 40.6069 370.307 43.11 372.87C45.5967 375.41 48.08 377.997 50.56 380.63C52.66 382.98 54.79 385.29 56.98 387.58C59.1522 389.852 61.1859 392.253 63.07 394.77C63.07 392.23 63.13 389.683 63.25 387.13C63.38 384.57 63.53 382.01 63.68 379.44C63.83 376.87 63.95 374.3 64.02 371.75C64.09 369.2 64.09 366.63 64 364.06Z"
        fill="#BE1622" stroke="#BE1622" stroke-miterlimit="10" />
    <path
        d="M70.62 381.44C70.5352 381.569 70.4216 381.677 70.288 381.756C70.1543 381.834 70.0044 381.88 69.85 381.89C69.5939 381.87 69.3531 381.76 69.17 381.58C68.9528 381.348 68.8319 381.043 68.8319 380.725C68.8319 380.407 68.9528 380.102 69.17 379.87C70.0679 378.741 71.2283 377.848 72.55 377.27C73.9296 376.626 75.4127 376.234 76.93 376.11C78.4022 375.977 79.8862 376.147 81.29 376.61C82.6034 377.013 83.7575 377.817 84.59 378.91C85.3657 380.148 85.848 381.547 86 383C86.2238 384.657 86.3174 386.329 86.28 388C86.28 389.74 86.17 391.49 86.05 393.24C85.932 394.871 85.9019 396.506 85.96 398.14C85.9695 398.277 85.9442 398.413 85.8865 398.538C85.8288 398.662 85.7405 398.769 85.63 398.85C85.4192 399.007 85.163 399.091 84.9 399.09C84.6365 399.095 84.379 399.011 84.17 398.85C84.0645 398.766 83.9811 398.657 83.9271 398.533C83.8731 398.41 83.85 398.275 83.86 398.14C83.86 397.92 83.81 397.71 83.8 397.52C83.79 397.33 83.8 397.12 83.8 396.9C82.8091 397.678 81.6838 398.268 80.48 398.64C79.3174 399.017 78.1169 399.265 76.9 399.38C76.1572 399.473 75.4079 399.503 74.66 399.47C73.8587 399.443 73.0633 399.322 72.29 399.11C71.5374 398.909 70.8286 398.57 70.2 398.11C69.5588 397.635 69.0774 396.976 68.82 396.22C68.4776 395.311 68.3311 394.34 68.39 393.37C68.4475 392.428 68.6816 391.505 69.08 390.65C69.4778 389.785 70.015 388.991 70.67 388.3C71.3485 387.577 72.1344 386.963 73 386.48C74.6167 385.374 76.4825 384.687 78.43 384.48C80.3793 384.254 82.3527 384.352 84.27 384.77C84.2237 384.114 84.1301 383.462 83.99 382.82C83.8578 382.201 83.6354 381.605 83.33 381.05C82.7796 380.011 81.8696 379.207 80.77 378.79C79.6283 378.361 78.4056 378.19 77.19 378.29C75.9063 378.397 74.6526 378.735 73.49 379.29C72.3734 379.764 71.3885 380.502 70.62 381.44V381.44ZM77.29 397.15C78.5565 396.993 79.7891 396.631 80.94 396.08C82.1272 395.496 83.1306 394.597 83.84 393.48C83.84 392.43 83.92 391.36 84.01 390.27C84.1106 389.216 84.1373 388.157 84.09 387.1C82.4937 386.62 80.8183 386.46 79.16 386.63C77.4984 386.751 75.8837 387.236 74.43 388.05C73.8316 388.424 73.2662 388.849 72.74 389.32C72.141 389.833 71.6219 390.433 71.2 391.1C70.786 391.753 70.5009 392.48 70.36 393.24C70.2318 394.035 70.3469 394.851 70.69 395.58C70.9899 396.055 71.4204 396.434 71.93 396.67C72.466 396.931 73.0396 397.107 73.63 397.19C74.258 397.291 74.8943 397.331 75.53 397.31C76.1199 397.302 76.7084 397.249 77.29 397.15Z"
        fill="#BE1622" stroke="#BE1622" stroke-miterlimit="10" />
    <path
        d="M109.38 378.58C109.484 378.723 109.557 378.885 109.597 379.057C109.637 379.228 109.641 379.406 109.61 379.58C109.573 379.878 109.451 380.159 109.26 380.39C109.166 380.486 109.054 380.562 108.93 380.613C108.807 380.665 108.674 380.691 108.54 380.69C108.386 380.684 108.236 380.638 108.106 380.555C107.976 380.472 107.871 380.357 107.8 380.22C106.95 379.352 105.928 378.671 104.8 378.22C103.727 377.799 102.583 377.589 101.43 377.6C100.25 377.626 99.0871 377.887 98.01 378.37C96.846 378.881 95.793 379.615 94.91 380.53C93.2804 382.251 92.168 384.396 91.7 386.72C91.4636 387.889 91.4264 389.089 91.59 390.27C91.7512 391.469 92.1857 392.615 92.86 393.62C93.2896 394.34 93.853 394.972 94.52 395.48C95.1718 395.984 95.8969 396.385 96.67 396.67C98.1752 397.236 99.8017 397.402 101.39 397.15C102.073 397.041 102.743 396.864 103.39 396.62C104.088 396.373 104.758 396.055 105.39 395.67C105.999 395.289 106.545 394.817 107.01 394.27C107.494 393.717 107.837 393.055 108.01 392.34C108.039 392.178 108.102 392.023 108.196 391.887C108.289 391.751 108.409 391.636 108.55 391.55C108.793 391.413 109.078 391.37 109.35 391.43C109.617 391.496 109.856 391.647 110.03 391.86C110.117 391.974 110.173 392.108 110.194 392.25C110.215 392.391 110.2 392.536 110.15 392.67C109.909 393.674 109.455 394.615 108.82 395.43C108.211 396.215 107.474 396.891 106.64 397.43C105.8 397.975 104.892 398.409 103.94 398.72C103.023 399.03 102.079 399.251 101.12 399.38C99.041 399.645 96.9295 399.316 95.03 398.43C94.0687 397.978 93.1845 397.377 92.41 396.65C91.5727 395.9 90.8811 395.001 90.37 394C89.7626 392.68 89.4 391.26 89.3 389.81C89.1052 386.906 89.8521 384.016 91.43 381.57C92.2174 380.351 93.185 379.259 94.3 378.33C95.4075 377.421 96.6577 376.701 98 376.2C99.2804 375.727 100.635 375.487 102 375.49C103.343 375.491 104.674 375.749 105.92 376.25C107.221 376.781 108.399 377.574 109.38 378.58V378.58Z"
        fill="#BE1622" stroke="#BE1622" stroke-miterlimit="10" />
    <path
        d="M127.63 377.82C126.425 377.924 125.25 378.246 124.16 378.77C123.143 379.286 122.214 379.961 121.41 380.77C120.589 381.587 119.889 382.516 119.33 383.53C118.736 384.592 118.25 385.711 117.88 386.87C117.88 388.77 117.88 390.66 117.88 392.53C117.88 394.4 118 396.29 118.12 398.2C118.158 398.357 118.163 398.52 118.134 398.678C118.104 398.837 118.042 398.987 117.95 399.12C117.873 399.219 117.775 399.298 117.662 399.352C117.549 399.406 117.425 399.433 117.3 399.43C117.009 399.42 116.73 399.31 116.51 399.12C116.223 398.892 116.033 398.563 115.98 398.2C115.652 392.492 115.628 386.771 115.91 381.06C116.19 375.38 116.55 369.667 116.99 363.92C117.019 363.78 117.078 363.647 117.162 363.532C117.247 363.416 117.355 363.32 117.48 363.25C117.708 363.107 117.971 363.028 118.24 363.02C118.47 363.022 118.693 363.103 118.87 363.25C118.958 363.334 119.018 363.444 119.042 363.564C119.065 363.684 119.05 363.809 119 363.92C118.787 366.973 118.587 369.997 118.4 372.99C118.22 375.99 118.06 378.99 117.95 382.06C118.451 381.043 119.128 380.122 119.95 379.34C121.611 377.703 123.684 376.545 125.95 375.99C127.029 375.725 128.146 375.651 129.25 375.77C130.295 375.88 131.303 376.221 132.2 376.77C133.155 377.399 133.927 378.268 134.44 379.29C135.036 380.95 135.354 382.697 135.38 384.46C135.424 386.264 135.341 388.068 135.13 389.86C135.13 390.18 135.13 390.74 135.05 391.53C134.97 392.32 135 393.15 135 394C135 394.85 135 395.66 135.05 396.41C135.035 396.915 135.152 397.415 135.39 397.86C135.489 397.957 135.563 398.078 135.605 398.21C135.646 398.343 135.655 398.483 135.63 398.62C135.589 398.892 135.463 399.144 135.27 399.34C135.082 399.531 134.842 399.663 134.58 399.72C134.45 399.751 134.313 399.745 134.186 399.703C134.059 399.66 133.946 399.583 133.86 399.48C133.247 398.233 132.906 396.869 132.86 395.48C132.813 394.075 132.859 392.669 133 391.27C133.15 389.84 133.29 388.41 133.42 386.96C133.55 385.538 133.49 384.106 133.24 382.7C133.057 381.902 132.803 381.122 132.48 380.37C132.259 379.798 131.918 379.28 131.48 378.85C131.039 378.46 130.511 378.183 129.94 378.04C129.183 377.867 128.406 377.793 127.63 377.82V377.82Z"
        fill="#BE1622" stroke="#BE1622" stroke-miterlimit="10" />
    <path
        d="M151.45 377.82C150.245 377.924 149.07 378.246 147.98 378.77C146.96 379.286 146.028 379.961 145.22 380.77C144.402 381.589 143.702 382.518 143.14 383.53C142.554 384.596 142.069 385.714 141.69 386.87C141.69 388.77 141.69 390.66 141.69 392.53C141.69 394.4 141.81 396.29 141.93 398.2C141.965 398.357 141.967 398.52 141.936 398.679C141.905 398.837 141.842 398.987 141.75 399.12C141.676 399.219 141.579 399.298 141.467 399.352C141.356 399.406 141.234 399.433 141.11 399.43C140.816 399.419 140.534 399.31 140.31 399.12C140.026 398.889 139.837 398.562 139.78 398.2C139.452 392.492 139.428 386.771 139.71 381.06C140.003 375.38 140.363 369.667 140.79 363.92C140.819 363.78 140.878 363.647 140.962 363.532C141.047 363.416 141.155 363.32 141.28 363.25C141.509 363.109 141.771 363.029 142.04 363.02C142.274 363.02 142.5 363.101 142.68 363.25C142.769 363.334 142.829 363.444 142.851 363.565C142.873 363.686 142.855 363.81 142.8 363.92C142.6 366.973 142.403 369.997 142.21 372.99C142.017 375.983 141.863 379.007 141.75 382.06C142.255 381.045 142.931 380.124 143.75 379.34C144.585 378.521 145.527 377.817 146.55 377.25C147.57 376.683 148.664 376.259 149.8 375.99C150.875 375.725 151.989 375.651 153.09 375.77C154.136 375.878 155.144 376.219 156.04 376.77C157 377.396 157.777 378.265 158.29 379.29C158.883 380.95 159.197 382.697 159.22 384.46C159.269 386.264 159.186 388.069 158.97 389.86C158.97 390.18 158.97 390.74 158.89 391.53C158.81 392.32 158.82 393.15 158.81 394C158.8 394.85 158.81 395.66 158.81 396.41C158.797 396.916 158.918 397.416 159.16 397.86C159.258 397.958 159.33 398.079 159.37 398.211C159.411 398.344 159.417 398.484 159.39 398.62C159.353 398.891 159.23 399.143 159.04 399.34C158.849 399.527 158.61 399.658 158.35 399.72C158.218 399.751 158.08 399.745 157.951 399.702C157.823 399.66 157.708 399.583 157.62 399.48C157.012 398.231 156.672 396.868 156.62 395.48C156.571 394.075 156.621 392.668 156.77 391.27C156.91 389.84 157.05 388.41 157.18 386.96C157.319 385.539 157.262 384.105 157.01 382.7C156.823 381.903 156.569 381.124 156.25 380.37C156.01 379.796 155.652 379.278 155.2 378.85C154.76 378.458 154.232 378.18 153.66 378.04C152.935 377.875 152.193 377.801 151.45 377.82Z"
        fill="#BE1622" stroke="#BE1622" stroke-miterlimit="10" />
    <path
        d="M164 376C164.202 375.857 164.443 375.781 164.69 375.78C164.934 375.779 165.172 375.856 165.37 376C165.475 376.068 165.559 376.164 165.614 376.277C165.668 376.39 165.691 376.515 165.68 376.64C165.68 376.89 165.62 377.25 165.59 377.71C165.56 378.17 165.54 378.85 165.49 379.71C165.44 380.57 165.41 381.81 165.38 383.33C165.38 384.54 165.38 385.9 165.38 387.43C165.38 388.96 165.38 390.43 165.54 391.78C165.624 393.001 165.815 394.212 166.11 395.4C166.16 395.791 166.301 396.164 166.521 396.491C166.742 396.817 167.036 397.088 167.38 397.28C167.5 397.339 167.603 397.426 167.682 397.534C167.76 397.642 167.811 397.768 167.83 397.9C167.855 398.143 167.795 398.387 167.66 398.59C167.504 398.807 167.294 398.979 167.05 399.09C166.924 399.153 166.784 399.181 166.643 399.172C166.503 399.164 166.367 399.118 166.25 399.04C165.851 398.823 165.508 398.514 165.25 398.14C164.977 397.752 164.746 397.336 164.56 396.9C164.367 396.445 164.216 395.973 164.11 395.49C163.996 395.029 163.913 394.562 163.86 394.09C163.615 392.508 163.481 390.911 163.46 389.31C163.46 387.73 163.46 386.14 163.46 384.52C163.46 382.9 163.46 381.52 163.55 380.45C163.64 379.38 163.61 378.62 163.64 378.05C163.67 377.48 163.64 377 163.73 376.62C163.723 376.503 163.744 376.386 163.791 376.278C163.838 376.17 163.91 376.075 164 376V376ZM165.08 371.88C164.763 371.893 164.45 371.802 164.19 371.62C164.072 371.508 163.98 371.371 163.923 371.218C163.866 371.066 163.844 370.902 163.86 370.74C163.861 370.479 163.949 370.225 164.11 370.02C164.214 369.873 164.352 369.753 164.512 369.671C164.672 369.59 164.85 369.548 165.03 369.55C165.289 369.567 165.544 369.632 165.78 369.74C166.1 369.86 166.25 370.2 166.24 370.74C166.23 371.28 165.84 371.74 165.08 371.87V371.88Z"
        fill="#BE1622" stroke="#BE1622" stroke-miterlimit="10" />
    <path
        d="M173 364.73C172.994 364.604 173.019 364.479 173.073 364.366C173.127 364.253 173.209 364.154 173.31 364.08C173.512 363.939 173.754 363.866 174 363.87C174.243 363.866 174.482 363.939 174.68 364.08C174.777 364.156 174.854 364.256 174.903 364.369C174.952 364.483 174.971 364.607 174.96 364.73C174.76 367.96 174.57 371.11 174.41 374.15C174.25 377.19 174.14 380.26 174.09 383.34C174.09 384.55 174.09 385.91 174.04 387.44C173.99 388.97 174.04 390.44 174.2 391.79C174.284 393.011 174.475 394.222 174.77 395.41C174.82 395.801 174.961 396.175 175.181 396.501C175.402 396.828 175.696 397.098 176.04 397.29C176.16 397.349 176.263 397.436 176.342 397.544C176.42 397.652 176.471 397.778 176.49 397.91C176.515 398.153 176.455 398.397 176.32 398.6C176.164 398.817 175.954 398.99 175.71 399.1C175.584 399.163 175.444 399.191 175.303 399.182C175.163 399.174 175.027 399.128 174.91 399.05C174.511 398.833 174.168 398.524 173.91 398.15C173.637 397.762 173.406 397.346 173.22 396.91C173.027 396.455 172.876 395.983 172.77 395.5C172.656 395.039 172.573 394.572 172.52 394.1C172.275 392.518 172.141 390.921 172.12 389.32C172.12 387.74 172.12 386.15 172.12 384.53C172.173 381.197 172.283 377.897 172.45 374.63C172.617 371.363 172.8 368.063 173 364.73Z"
        fill="#BE1622" stroke="#BE1622" stroke-miterlimit="10" />
    <path
        d="M200.59 374.44C200.58 374.578 200.539 374.712 200.47 374.831C200.4 374.951 200.305 375.053 200.19 375.13C200.006 375.238 199.787 375.27 199.58 375.22C199.355 375.172 199.154 375.049 199.01 374.87C198.846 374.667 198.76 374.411 198.77 374.15V371.15C198.845 370.199 198.64 369.246 198.18 368.41C197.775 367.673 197.19 367.051 196.48 366.6C195.773 366.169 194.958 365.947 194.13 365.96C193.245 365.965 192.385 366.248 191.67 366.77C190.748 367.442 190.028 368.356 189.59 369.41C189.09 370.578 188.724 371.799 188.5 373.05C188.264 374.373 188.111 375.708 188.04 377.05C187.97 378.41 187.93 379.65 187.91 380.76L191.64 380.67C192.87 380.67 194.13 380.59 195.41 380.52C195.55 380.51 195.691 380.533 195.821 380.587C195.952 380.641 196.068 380.724 196.16 380.83C196.313 381.02 196.398 381.256 196.4 381.5C196.399 381.739 196.306 381.968 196.14 382.14C196.041 382.239 195.922 382.316 195.791 382.366C195.66 382.416 195.52 382.438 195.38 382.43C192.847 382.59 190.36 382.683 187.92 382.71C187.92 384.33 187.92 385.84 187.92 387.24C187.92 388.64 188.02 389.97 188.08 391.24C188.14 392.51 188.15 393.76 188.13 394.95C188.11 396.14 188.02 397.33 187.88 398.5C187.889 398.622 187.864 398.743 187.81 398.852C187.755 398.962 187.673 399.054 187.57 399.12C187.38 399.246 187.158 399.312 186.93 399.31C186.711 399.315 186.497 399.248 186.32 399.12C186.226 399.048 186.152 398.953 186.105 398.845C186.058 398.736 186.039 398.618 186.05 398.5C186.23 397.197 186.33 395.885 186.35 394.57C186.35 393.26 186.35 391.93 186.35 390.57C186.35 389.21 186.26 387.91 186.19 386.57C186.12 385.23 186.1 383.95 186.12 382.64C185.17 382.64 184.24 382.64 183.31 382.64C182.38 382.64 181.44 382.64 180.5 382.64C180.36 382.652 180.22 382.631 180.089 382.579C179.959 382.527 179.843 382.445 179.75 382.34C179.597 382.15 179.512 381.914 179.51 381.67C179.511 381.422 179.603 381.183 179.77 381C179.868 380.897 179.986 380.817 180.117 380.763C180.248 380.71 180.389 380.685 180.53 380.69C181.483 380.69 182.413 380.69 183.32 380.69C184.227 380.69 185.157 380.69 186.11 380.69C186.11 379.39 186.17 378.1 186.22 376.81C186.272 375.561 186.392 374.316 186.58 373.08C186.759 371.914 187.041 370.767 187.42 369.65C187.783 368.587 188.317 367.591 189 366.7C189.536 365.933 190.254 365.311 191.09 364.89C191.931 364.448 192.853 364.179 193.8 364.1C194.735 364.018 195.677 364.141 196.56 364.46C197.465 364.786 198.256 365.366 198.84 366.13C199.308 366.708 199.682 367.356 199.95 368.05C200.21 368.728 200.398 369.432 200.51 370.15C200.621 370.858 200.668 371.574 200.65 372.29C200.71 373 200.67 373.74 200.59 374.44Z"
        fill="#BE1622" stroke="#BE1622" stroke-miterlimit="10" />
    <path
        d="M217.23 387.63C213.481 388.132 209.667 387.738 206.1 386.48C206.013 387.844 206.231 389.211 206.74 390.48C207.268 391.813 208.08 393.014 209.12 394C210.056 394.917 211.141 395.668 212.33 396.22C213.431 396.732 214.618 397.03 215.83 397.1C217.021 397.163 218.214 396.993 219.34 396.6C220.538 396.173 221.641 395.517 222.59 394.67C222.683 394.557 222.804 394.469 222.94 394.415C223.077 394.361 223.224 394.342 223.37 394.36C223.641 394.408 223.89 394.541 224.08 394.74C224.267 394.945 224.382 395.204 224.41 395.48C224.42 395.628 224.4 395.776 224.35 395.915C224.3 396.055 224.222 396.182 224.12 396.29C223.341 396.926 222.496 397.475 221.6 397.93C220.694 398.389 219.737 398.741 218.75 398.98C217.768 399.217 216.76 399.327 215.75 399.31C214.731 399.294 213.72 399.125 212.75 398.81C211.589 398.395 210.491 397.819 209.49 397.1C208.474 396.375 207.559 395.517 206.77 394.55C205.978 393.58 205.335 392.498 204.86 391.34C203.782 388.685 203.782 385.715 204.86 383.06C206.058 380.254 208.258 377.994 211.03 376.72C212.364 376.081 213.821 375.74 215.3 375.72C216.514 375.742 217.719 375.934 218.88 376.29C220.137 376.642 221.324 377.206 222.39 377.96C223.372 378.64 224.147 379.578 224.63 380.67C224.858 381.273 224.95 381.919 224.9 382.562C224.85 383.205 224.659 383.829 224.34 384.39C223.474 385.452 222.327 386.249 221.03 386.69C219.798 387.128 218.525 387.443 217.23 387.63V387.63ZM208.43 381.2C207.985 381.676 207.599 382.203 207.28 382.77C206.985 383.304 206.737 383.863 206.54 384.44C208.311 384.985 210.124 385.383 211.96 385.63C213.822 385.884 215.715 385.785 217.54 385.34L218.87 385.06C219.462 384.927 220.047 384.76 220.62 384.56C221.165 384.37 221.678 384.096 222.14 383.75C222.34 383.615 222.505 383.433 222.619 383.221C222.734 383.008 222.796 382.771 222.8 382.53C222.833 381.91 222.633 381.3 222.24 380.82C221.836 380.331 221.348 379.918 220.8 379.6C220.232 379.271 219.632 379 219.01 378.79C218.39 378.59 217.85 378.44 217.39 378.34C215.785 377.926 214.096 377.978 212.52 378.49C210.947 379.029 209.539 379.962 208.43 381.2V381.2Z"
        fill="#BE1622" stroke="#BE1622" stroke-miterlimit="10" />
    <path
        d="M263.48 395.81C263.576 395.901 263.649 396.014 263.691 396.14C263.733 396.265 263.743 396.399 263.72 396.53C263.678 396.766 263.563 396.983 263.39 397.15C263.222 397.305 262.999 397.388 262.77 397.38C262.637 397.373 262.508 397.331 262.397 397.257C262.286 397.183 262.197 397.08 262.14 396.96L261.03 395.86C260.66 395.48 260.29 395.08 259.94 394.67C259.84 394.83 259.75 394.98 259.65 395.12L259.37 395.58C258.642 396.406 257.763 397.085 256.78 397.58C255.801 398.091 254.714 398.358 253.61 398.36C252.656 398.423 251.699 398.322 250.78 398.06C249.793 397.792 248.857 397.363 248.01 396.79C247.193 396.225 246.511 395.488 246.01 394.63C245.484 393.723 245.257 392.673 245.36 391.63C245.386 390.368 245.73 389.134 246.36 388.04C246.947 386.98 247.663 385.996 248.49 385.11C248.734 384.86 248.991 384.623 249.26 384.4L250.02 383.73C249.31 382.88 248.64 382.02 248.02 381.16C247.386 380.185 246.904 379.12 246.59 378C246.289 376.887 246.367 375.705 246.81 374.64C247.025 374.03 247.366 373.471 247.81 373C248.23 372.533 248.723 372.138 249.27 371.83C249.822 371.51 250.409 371.255 251.02 371.07C251.615 370.881 252.229 370.754 252.85 370.69C253.755 370.698 254.657 370.802 255.54 371C256.487 371.188 257.347 371.679 257.99 372.4C258.391 372.747 258.714 373.176 258.938 373.656C259.162 374.137 259.282 374.66 259.29 375.19C259.343 376.353 259.142 377.513 258.7 378.59C258.386 379.216 258.032 379.82 257.64 380.4C257.242 381.002 256.764 381.546 256.22 382.02C255.796 382.452 255.311 382.819 254.78 383.11L253.21 383.97C253.75 384.7 254.27 385.36 254.78 385.97C255.29 386.58 255.78 387.11 256.33 387.63C256.88 388.15 257.33 388.63 257.85 389.2C258.37 389.77 258.85 390.27 259.31 390.85C259.482 389.889 259.499 388.906 259.36 387.94C259.327 387.817 259.326 387.687 259.355 387.564C259.385 387.44 259.445 387.325 259.53 387.23C259.687 387.046 259.896 386.914 260.13 386.85C260.361 386.775 260.609 386.775 260.84 386.85C260.959 386.89 261.064 386.963 261.144 387.06C261.223 387.158 261.274 387.275 261.29 387.4C261.335 388.296 261.335 389.194 261.29 390.09C261.243 390.965 261.105 391.833 260.88 392.68C261.3 393.19 261.73 393.68 262.18 394.21L263.48 395.81ZM253.64 396.43C254.717 396.4 255.761 396.052 256.64 395.43C257.441 394.843 258.083 394.066 258.51 393.17C257.25 391.86 256.01 390.56 254.78 389.24C253.55 387.92 252.36 386.58 251.2 385.24C250.73 385.62 250.27 386.03 249.8 386.47C249.338 386.919 248.916 387.407 248.54 387.93C248.174 388.441 247.866 388.991 247.62 389.57C247.389 390.129 247.264 390.726 247.25 391.33C247.153 392.15 247.306 392.979 247.69 393.71C248.052 394.368 248.567 394.931 249.19 395.35C249.845 395.789 250.578 396.098 251.35 396.26C252.1 396.432 252.872 396.49 253.64 396.43V396.43ZM250.25 373.49C249.816 373.713 249.433 374.022 249.123 374.399C248.814 374.775 248.585 375.211 248.45 375.68C248.268 376.504 248.335 377.363 248.64 378.15C248.966 379.021 249.428 379.835 250.01 380.56C250.62 381.33 251.2 382.01 251.74 382.56C251.89 382.46 252.06 382.37 252.24 382.27L252.8 381.99C253.618 381.584 254.362 381.043 255 380.39C255.701 379.718 256.271 378.921 256.68 378.04C257.07 377.232 257.236 376.334 257.16 375.44C257.104 374.976 256.942 374.531 256.687 374.139C256.433 373.748 256.091 373.419 255.69 373.18C254.849 372.764 253.917 372.568 252.98 372.61C252.006 372.642 251.06 372.947 250.25 373.49V373.49Z"
        fill="#BE1622" stroke="#BE1622" stroke-miterlimit="10" />
    <path
        d="M285.23 364.68C285.22 364.528 285.243 364.375 285.296 364.232C285.349 364.089 285.433 363.959 285.54 363.85C285.727 363.675 285.974 363.578 286.23 363.58C286.483 363.581 286.726 363.677 286.91 363.85C287.018 363.957 287.101 364.088 287.151 364.231C287.201 364.375 287.218 364.529 287.2 364.68C287 367.35 286.81 370 286.62 372.68C286.43 375.36 286.29 377.98 286.17 380.61C286.05 383.24 285.98 385.89 285.98 388.54C285.98 391.19 286.08 393.84 286.28 396.54L292.73 396.16C294.89 396.03 297.06 395.98 299.22 395.99C301.38 396 303.56 396.1 305.75 396.28C307.967 396.456 310.174 396.75 312.36 397.16C312.473 397.146 312.587 397.168 312.686 397.224C312.785 397.28 312.864 397.366 312.91 397.47C312.995 397.685 312.995 397.925 312.91 398.14C312.827 398.377 312.682 398.588 312.49 398.75C312.395 398.836 312.281 398.896 312.157 398.926C312.033 398.956 311.903 398.954 311.78 398.92C307.486 398.196 303.133 397.884 298.78 397.99C294.49 398.1 290.16 398.32 285.78 398.63C285.615 398.663 285.445 398.657 285.284 398.612C285.122 398.567 284.973 398.484 284.85 398.37C284.711 398.257 284.597 398.116 284.518 397.955C284.439 397.795 284.395 397.619 284.39 397.44C284.163 394.72 284.043 391.993 284.03 389.26C284.017 386.527 284.063 383.803 284.17 381.09C284.277 378.383 284.43 375.663 284.63 372.93L285.23 364.68Z"
        fill="#BE1622" stroke="#BE1622" stroke-miterlimit="10" />
    <path
        d="M329.4 387.63C327.55 387.88 325.677 387.91 323.82 387.72C321.924 387.53 320.057 387.114 318.26 386.48C318.178 387.844 318.396 389.21 318.9 390.48C319.432 391.813 320.247 393.014 321.29 394C322.222 394.917 323.304 395.668 324.49 396.22C325.594 396.732 326.785 397.03 328 397.1C329.188 397.162 330.377 396.993 331.5 396.6C332.701 396.173 333.808 395.517 334.76 394.67C334.853 394.557 334.974 394.469 335.11 394.415C335.247 394.361 335.394 394.342 335.54 394.36C335.809 394.406 336.055 394.54 336.24 394.74C336.435 394.939 336.552 395.202 336.57 395.48C336.585 395.628 336.567 395.778 336.517 395.918C336.466 396.058 336.386 396.185 336.28 396.29C335.505 396.93 334.659 397.48 333.76 397.93C332.855 398.392 331.898 398.744 330.91 398.98C329.928 399.218 328.92 399.329 327.91 399.31C326.891 399.294 325.88 399.125 324.91 398.81C323.749 398.395 322.651 397.819 321.65 397.1C320.632 396.378 319.716 395.52 318.93 394.55C318.138 393.58 317.495 392.498 317.02 391.34C316.538 390.161 316.274 388.904 316.24 387.63C316.162 386.063 316.446 384.499 317.07 383.06C318.26 380.249 320.462 377.986 323.24 376.72C324.574 376.08 326.031 375.739 327.51 375.72C328.721 375.743 329.922 375.935 331.08 376.29C332.339 376.644 333.53 377.208 334.6 377.96C335.582 378.64 336.357 379.578 336.84 380.67C337.066 381.274 337.156 381.921 337.104 382.563C337.052 383.206 336.86 383.83 336.54 384.39C335.676 385.454 334.528 386.251 333.23 386.69C331.988 387.132 330.705 387.447 329.4 387.63V387.63ZM320.6 381.2C320.156 381.676 319.769 382.203 319.45 382.77C319.151 383.302 318.903 383.861 318.71 384.44C320.481 384.986 322.293 385.384 324.13 385.63C325.992 385.884 327.885 385.785 329.71 385.34L331.04 385.06C331.632 384.924 332.216 384.758 332.79 384.56C333.335 384.37 333.848 384.096 334.31 383.75C334.507 383.612 334.67 383.43 334.784 383.218C334.899 383.006 334.962 382.771 334.97 382.53C334.994 381.911 334.795 381.305 334.41 380.82C334.015 380.334 333.538 379.921 333 379.6C332.427 379.273 331.824 379.002 331.2 378.79C330.58 378.59 330.04 378.44 329.59 378.34C327.985 377.926 326.296 377.978 324.72 378.49C323.137 379.024 321.718 379.958 320.6 381.2V381.2Z"
        fill="#BE1622" stroke="#BE1622" stroke-miterlimit="10" />
    <path
        d="M343.28 385.91C343.28 386.17 343.28 386.48 343.28 386.84C343.28 387.2 343.23 387.84 343.2 388.65C343.17 389.46 343.13 390.65 343.09 392.2C343.05 393.75 342.99 395.77 342.92 398.34C342.963 398.489 342.972 398.646 342.944 398.799C342.916 398.952 342.853 399.096 342.76 399.22C342.679 399.316 342.577 399.393 342.464 399.447C342.35 399.5 342.226 399.528 342.1 399.53C341.813 399.516 341.538 399.407 341.32 399.22C341.058 398.991 340.878 398.682 340.81 398.34C340.96 395 341.07 392.22 341.14 389.98C341.21 387.74 341.27 385.86 341.33 384.32C341.39 382.78 341.43 381.47 341.45 380.39C341.47 379.31 341.45 378.26 341.45 377.25C341.476 377.106 341.534 376.97 341.618 376.851C341.703 376.731 341.813 376.632 341.94 376.56C342.176 376.42 342.445 376.344 342.72 376.34C342.959 376.332 343.193 376.41 343.38 376.56C343.473 376.645 343.539 376.756 343.57 376.879C343.6 377.002 343.593 377.131 343.55 377.25L343.5 380.58C344.918 378.509 346.895 376.883 349.2 375.89C350.342 375.407 351.548 375.094 352.78 374.96C353.984 374.836 355.2 374.983 356.34 375.39C357.311 375.7 358.142 376.341 358.69 377.2C359.21 378.078 359.607 379.024 359.87 380.01C359.944 380.132 359.983 380.272 359.983 380.415C359.983 380.558 359.944 380.698 359.87 380.82C359.717 381.033 359.494 381.186 359.24 381.25C358.961 381.307 358.671 381.264 358.42 381.13C358.112 380.957 357.88 380.675 357.77 380.34C357.482 379.456 356.947 378.672 356.23 378.08C355.606 377.598 354.863 377.294 354.08 377.2C353.226 377.106 352.361 377.187 351.54 377.44C350.622 377.694 349.733 378.046 348.89 378.49C347.451 379.216 346.228 380.305 345.34 381.65C344.475 382.977 343.783 384.408 343.28 385.91V385.91Z"
        fill="#BE1622" stroke="#BE1622" stroke-miterlimit="10" />
    <path
        d="M365.45 385.86C365.45 386.15 365.45 386.49 365.38 386.86C365.31 387.23 365.31 387.86 365.28 388.71C365.25 389.56 365.21 390.71 365.17 392.24C365.13 393.77 365.09 395.75 365.05 398.24C365.1 398.371 365.117 398.512 365.099 398.651C365.08 398.79 365.027 398.922 364.945 399.036C364.862 399.149 364.753 399.24 364.626 399.3C364.5 399.36 364.36 399.388 364.22 399.38C363.94 399.372 363.67 399.274 363.45 399.1C363.319 398.995 363.211 398.865 363.132 398.717C363.053 398.569 363.005 398.407 362.99 398.24C362.99 397.38 362.99 396.39 362.99 395.24C362.99 394.09 363.07 392.96 363.14 391.77C363.21 390.58 363.27 389.41 363.34 388.27C363.41 387.13 363.44 386.13 363.46 385.27L363.6 377.27C363.681 376.986 363.862 376.741 364.11 376.58C364.341 376.445 364.603 376.372 364.87 376.37C365.108 376.359 365.342 376.434 365.53 376.58C365.622 376.666 365.687 376.777 365.718 376.9C365.748 377.022 365.742 377.151 365.7 377.27L365.64 380.8C366.462 379.559 367.474 378.455 368.64 377.53C369.789 376.627 371.13 376 372.56 375.7C373.454 375.478 374.369 375.35 375.29 375.32C376.187 375.285 377.085 375.39 377.95 375.63C378.766 375.851 379.531 376.232 380.2 376.75C380.863 377.286 381.365 377.996 381.65 378.8C381.949 379.59 382.157 380.412 382.27 381.25C382.392 382.132 382.459 383.02 382.47 383.91C382.47 384.82 382.47 385.72 382.47 386.63C382.47 387.54 382.41 388.41 382.4 389.27C382.4 389.94 382.34 390.67 382.27 391.46C382.2 392.25 382.14 393.02 382.11 393.77C382.08 394.52 382.11 395.2 382.11 395.84C382.108 396.346 382.251 396.842 382.52 397.27C382.608 397.383 382.67 397.515 382.703 397.654C382.736 397.794 382.738 397.939 382.71 398.08C382.671 398.347 382.548 398.596 382.36 398.79C382.189 398.973 381.959 399.089 381.71 399.12C381.582 399.135 381.453 399.117 381.334 399.068C381.215 399.019 381.11 398.94 381.03 398.84C380.668 398.458 380.41 397.99 380.28 397.48C380.134 396.939 380.06 396.381 380.06 395.82C380.053 395.199 380.08 394.578 380.14 393.96C380.19 393.31 380.23 392.67 380.24 392.03C380.24 390.51 380.33 388.87 380.44 387.13C380.551 385.482 380.551 383.828 380.44 382.18C380.24 381.29 380.04 380.53 379.84 379.91C379.674 379.357 379.387 378.848 379 378.42C378.588 378.006 378.069 377.715 377.5 377.58C376.648 377.379 375.776 377.275 374.9 377.27C372.669 377.507 370.57 378.441 368.9 379.94C367.216 381.55 366.021 383.602 365.45 385.86V385.86Z"
        fill="#BE1622" stroke="#BE1622" stroke-miterlimit="10" />
    <path
        d="M405.28 392.48C405.267 392.326 405.29 392.17 405.347 392.026C405.404 391.882 405.494 391.753 405.61 391.65C405.811 391.48 406.067 391.388 406.33 391.39C406.587 391.388 406.836 391.48 407.03 391.65C407.142 391.755 407.228 391.885 407.282 392.029C407.336 392.173 407.356 392.327 407.34 392.48C407.148 393.752 406.688 394.969 405.99 396.05C405.319 397.153 404.333 398.031 403.16 398.57C402.4 398.919 401.584 399.129 400.75 399.19C399.924 399.261 399.092 399.19 398.29 398.98C397.486 398.776 396.736 398.401 396.09 397.88C395.4 397.324 394.849 396.615 394.48 395.81C394.04 394.925 393.726 393.983 393.55 393.01C393.36 391.987 393.253 390.95 393.23 389.91C393.23 388.83 393.23 387.71 393.29 386.53C393.35 385.35 393.45 384.12 393.56 382.82H386C385.846 382.83 385.692 382.805 385.55 382.746C385.408 382.687 385.281 382.596 385.18 382.48C385.004 382.278 384.911 382.017 384.92 381.75C384.924 381.478 385.023 381.216 385.2 381.01C385.302 380.893 385.431 380.801 385.575 380.742C385.719 380.683 385.875 380.658 386.03 380.67H393.67C393.76 378.8 393.87 376.95 393.99 375.11C394.095 373.238 394.095 371.362 393.99 369.49C393.955 369.341 393.955 369.186 393.99 369.037C394.025 368.888 394.093 368.748 394.19 368.63C394.276 368.539 394.38 368.466 394.495 368.416C394.61 368.366 394.734 368.34 394.86 368.34C395.136 368.348 395.401 368.45 395.61 368.63C395.736 368.737 395.84 368.869 395.916 369.016C395.991 369.164 396.037 369.325 396.05 369.49C396.16 371.368 396.16 373.252 396.05 375.13C395.94 376.99 395.81 378.82 395.65 380.63L398.95 380.53C400.04 380.53 401.14 380.45 402.24 380.39C402.369 380.381 402.499 380.407 402.615 380.465C402.731 380.523 402.829 380.611 402.9 380.72C403.027 380.939 403.092 381.187 403.09 381.44C403.086 381.693 403.01 381.939 402.87 382.15C402.798 382.26 402.698 382.349 402.58 382.407C402.462 382.465 402.331 382.49 402.2 382.48C399.98 382.607 397.723 382.703 395.43 382.77C395.28 384.48 395.18 386.21 395.14 387.94C395.081 389.578 395.242 391.216 395.62 392.81C395.8 393.53 396.083 394.221 396.46 394.86C396.782 395.432 397.214 395.935 397.73 396.34C398.234 396.725 398.831 396.97 399.46 397.05C400.212 397.135 400.973 397.039 401.68 396.77C402.646 396.457 403.493 395.857 404.11 395.05C404.717 394.309 405.12 393.424 405.28 392.48V392.48Z"
        fill="#BE1622" stroke="#BE1622" stroke-miterlimit="10" />
    <path
        d="M423.82 377.82C422.615 377.924 421.44 378.246 420.35 378.77C419.331 379.284 418.402 379.959 417.6 380.77C416.779 381.589 416.076 382.518 415.51 383.53C414.924 384.596 414.439 385.714 414.06 386.87C414.06 388.77 414.06 390.66 414.06 392.53C414.06 394.4 414.18 396.29 414.3 398.2C414.338 398.357 414.341 398.521 414.31 398.68C414.279 398.838 414.214 398.988 414.12 399.12C414.046 399.219 413.949 399.298 413.837 399.352C413.726 399.406 413.604 399.433 413.48 399.43C413.186 399.418 412.905 399.309 412.68 399.12C412.396 398.889 412.207 398.562 412.15 398.2C411.825 392.492 411.805 386.77 412.09 381.06C412.37 375.38 412.727 369.667 413.16 363.92C413.189 363.78 413.248 363.647 413.332 363.532C413.417 363.416 413.525 363.32 413.65 363.25C413.879 363.109 414.141 363.029 414.41 363.02C414.644 363.02 414.87 363.101 415.05 363.25C415.139 363.334 415.199 363.444 415.221 363.565C415.243 363.686 415.225 363.81 415.17 363.92C414.97 366.973 414.773 369.997 414.58 372.99C414.387 375.983 414.237 379.007 414.13 382.06C414.631 381.042 415.308 380.121 416.13 379.34C416.965 378.521 417.907 377.817 418.93 377.25C419.951 376.685 421.045 376.261 422.18 375.99C423.255 375.725 424.369 375.651 425.47 375.77C426.532 375.874 427.558 376.216 428.47 376.77C429.425 377.399 430.197 378.268 430.71 379.29C431.302 380.951 431.619 382.697 431.65 384.46C431.696 386.264 431.609 388.069 431.39 389.86C431.39 390.18 431.39 390.74 431.32 391.53C431.25 392.32 431.24 393.15 431.23 394C431.22 394.85 431.23 395.66 431.28 396.41C431.265 396.915 431.382 397.415 431.62 397.86C431.719 397.957 431.793 398.078 431.835 398.21C431.876 398.343 431.885 398.483 431.86 398.62C431.819 398.892 431.693 399.144 431.5 399.34C431.31 399.529 431.071 399.661 430.81 399.72C430.678 399.751 430.54 399.745 430.411 399.702C430.283 399.66 430.168 399.583 430.08 399.48C429.466 398.233 429.126 396.869 429.08 395.48C429.023 394.075 429.069 392.668 429.22 391.27C429.36 389.84 429.5 388.41 429.64 386.96C429.77 385.538 429.71 384.106 429.46 382.7C429.273 381.903 429.019 381.124 428.7 380.37C428.46 379.796 428.102 379.278 427.65 378.85C427.21 378.458 426.682 378.18 426.11 378.04C425.359 377.867 424.59 377.793 423.82 377.82V377.82Z"
        fill="#BE1622" stroke="#BE1622" stroke-miterlimit="10" />
    <path
        d="M448.79 387.63C446.94 387.88 445.067 387.91 443.21 387.72C441.314 387.53 439.447 387.114 437.65 386.48C437.568 387.844 437.786 389.21 438.29 390.48C438.822 391.813 439.637 393.014 440.68 394C441.61 394.919 442.693 395.671 443.88 396.22C444.984 396.732 446.175 397.03 447.39 397.1C448.578 397.162 449.767 396.993 450.89 396.6C452.091 396.173 453.198 395.517 454.15 394.67C454.243 394.556 454.363 394.468 454.5 394.413C454.636 394.359 454.784 394.341 454.93 394.36C455.198 394.409 455.443 394.542 455.63 394.74C455.825 394.939 455.942 395.202 455.96 395.48C455.975 395.628 455.957 395.778 455.907 395.918C455.856 396.058 455.776 396.185 455.67 396.29C454.895 396.93 454.049 397.48 453.15 397.93C452.246 398.399 451.289 398.758 450.3 399C449.318 399.238 448.31 399.349 447.3 399.33C446.281 399.314 445.269 399.145 444.3 398.83C443.124 398.412 442.013 397.83 441 397.1C439.982 396.378 439.066 395.52 438.28 394.55C437.485 393.583 436.841 392.5 436.37 391.34C435.308 388.679 435.326 385.708 436.42 383.06C437.61 380.249 439.812 377.986 442.59 376.72C443.92 376.081 445.374 375.74 446.85 375.72C448.064 375.742 449.269 375.934 450.43 376.29C451.689 376.644 452.88 377.208 453.95 377.96C454.932 378.637 455.704 379.576 456.18 380.67C456.408 381.273 456.5 381.919 456.45 382.562C456.4 383.205 456.209 383.829 455.89 384.39C455.026 385.454 453.878 386.251 452.58 386.69C451.351 387.129 450.082 387.444 448.79 387.63V387.63ZM440 381.2C439.555 381.676 439.169 382.203 438.85 382.77C438.551 383.302 438.303 383.861 438.11 384.44C439.881 384.986 441.693 385.384 443.53 385.63C445.392 385.884 447.285 385.785 449.11 385.34L450.44 385.06C451.032 384.924 451.616 384.758 452.19 384.56C452.735 384.37 453.248 384.096 453.71 383.75C453.907 383.612 454.07 383.43 454.184 383.218C454.299 383.006 454.362 382.771 454.37 382.53C454.394 381.91 454.192 381.302 453.8 380.82C453.401 380.327 452.912 379.913 452.36 379.6C451.792 379.271 451.192 379 450.57 378.79C449.95 378.59 449.41 378.44 448.96 378.34C447.355 377.926 445.666 377.978 444.09 378.49C442.517 379.029 441.109 379.962 440 381.2V381.2Z"
        fill="#BE1622" stroke="#BE1622" stroke-miterlimit="10" />
    <path
        d="M462.66 385.91C462.66 386.17 462.66 386.48 462.66 386.84C462.66 387.21 462.61 387.84 462.58 388.65C462.55 389.46 462.51 390.65 462.47 392.2C462.43 393.75 462.37 395.77 462.29 398.34C462.342 398.487 462.355 398.645 462.329 398.799C462.303 398.953 462.238 399.098 462.14 399.22C462.057 399.317 461.955 399.395 461.839 399.449C461.723 399.502 461.597 399.53 461.47 399.53C461.186 399.514 460.916 399.405 460.7 399.22C460.438 398.991 460.258 398.682 460.19 398.34C460.34 395 460.45 392.22 460.52 389.98C460.59 387.74 460.65 385.86 460.71 384.32C460.77 382.78 460.81 381.47 460.83 380.39C460.85 379.31 460.83 378.26 460.88 377.25C460.906 377.106 460.964 376.97 461.048 376.851C461.133 376.731 461.243 376.632 461.37 376.56C461.606 376.418 461.875 376.342 462.15 376.34C462.389 376.332 462.623 376.41 462.81 376.56C462.903 376.645 462.969 376.756 463 376.879C463.03 377.002 463.023 377.131 462.98 377.25L462.92 380.58C463.609 379.563 464.441 378.65 465.39 377.87C467.326 376.247 469.699 375.235 472.21 374.96C473.414 374.836 474.63 374.983 475.77 375.39C476.74 375.698 477.569 376.339 478.11 377.2C478.638 378.076 479.038 379.022 479.3 380.01C479.374 380.132 479.413 380.272 479.413 380.415C479.413 380.558 479.374 380.698 479.3 380.82C479.153 381.035 478.932 381.188 478.68 381.25C478.401 381.307 478.111 381.264 477.86 381.13C477.55 380.96 477.317 380.677 477.21 380.34C476.922 379.456 476.387 378.672 475.67 378.08C475.046 377.598 474.303 377.294 473.52 377.2C472.666 377.106 471.801 377.187 470.98 377.44C470.062 377.694 469.173 378.046 468.33 378.49C466.891 379.216 465.668 380.305 464.78 381.65C463.898 382.976 463.186 384.407 462.66 385.91V385.91Z"
        fill="#BE1622" stroke="#BE1622" stroke-miterlimit="10" />
    <path
        d="M484.13 381.44C484.05 381.572 483.939 381.681 483.806 381.76C483.674 381.838 483.524 381.883 483.37 381.89C483.113 381.872 482.872 381.762 482.69 381.58C482.49 381.374 482.367 381.106 482.34 380.82C482.323 380.649 482.342 380.476 482.395 380.312C482.448 380.149 482.535 379.998 482.65 379.87C483.55 378.743 484.71 377.851 486.03 377.27C487.414 376.628 488.9 376.235 490.42 376.11C491.892 375.977 493.376 376.148 494.78 376.61C496.092 377.01 497.243 377.815 498.07 378.91C498.871 380.135 499.38 381.527 499.56 382.98C499.779 384.637 499.872 386.309 499.84 387.98C499.84 389.72 499.73 391.47 499.61 393.22C499.487 394.85 499.457 396.486 499.52 398.12C499.527 398.256 499.5 398.392 499.443 398.516C499.385 398.64 499.299 398.747 499.19 398.83C498.976 398.989 498.716 399.074 498.45 399.07C498.19 399.073 497.936 398.988 497.73 398.83C497.622 398.748 497.538 398.639 497.483 398.515C497.429 398.391 497.407 398.255 497.42 398.12C497.42 397.9 497.37 397.69 497.36 397.5C497.35 397.31 497.36 397.1 497.36 396.88C496.354 397.653 495.215 398.236 494 398.6C492.837 398.977 491.637 399.225 490.42 399.34C489.677 399.433 488.928 399.463 488.18 399.43C487.379 399.404 486.583 399.283 485.81 399.07C485.057 398.871 484.348 398.532 483.72 398.07C483.079 397.595 482.597 396.936 482.34 396.18C481.998 395.271 481.851 394.3 481.91 393.33C481.969 392.389 482.199 391.468 482.59 390.61C482.995 389.747 483.536 388.954 484.19 388.26C484.846 387.554 485.605 386.951 486.44 386.47C488.057 385.364 489.922 384.677 491.87 384.47C493.819 384.244 495.793 384.342 497.71 384.76C497.664 384.104 497.57 383.452 497.43 382.81C497.293 382.192 497.071 381.596 496.77 381.04C496.217 380.002 495.308 379.2 494.21 378.78C493.065 378.351 491.839 378.18 490.62 378.28C489.34 378.388 488.09 378.727 486.93 379.28C485.84 379.77 484.881 380.51 484.13 381.44V381.44ZM490.81 397.15C492.076 396.993 493.309 396.631 494.46 396.08C495.645 395.494 496.648 394.595 497.36 393.48C497.36 392.43 497.44 391.36 497.53 390.27C497.626 389.216 497.652 388.157 497.61 387.1C496.014 386.62 494.338 386.46 492.68 386.63C491.018 386.75 489.403 387.235 487.95 388.05C487.352 388.424 486.786 388.849 486.26 389.32C485.658 389.831 485.139 390.431 484.72 391.1C484.306 391.753 484.021 392.48 483.88 393.24C483.752 394.035 483.867 394.851 484.21 395.58C484.506 396.054 484.933 396.433 485.44 396.67C485.979 396.931 486.556 397.107 487.15 397.19C487.775 397.291 488.408 397.331 489.04 397.31C489.633 397.303 490.225 397.249 490.81 397.15V397.15Z"
        fill="#BE1622" stroke="#BE1622" stroke-miterlimit="10" />
    <path
        d="M506.37 411.29C506.406 411.44 506.41 411.597 506.381 411.748C506.351 411.9 506.29 412.044 506.2 412.17C506.122 412.267 506.023 412.345 505.91 412.399C505.798 412.453 505.675 412.48 505.55 412.48C505.266 412.466 504.995 412.357 504.78 412.17C504.518 411.941 504.338 411.632 504.27 411.29C504.103 405.637 503.98 400.027 503.9 394.46C503.833 388.825 504.063 383.191 504.59 377.58C504.61 377.411 504.664 377.248 504.748 377.1C504.832 376.953 504.945 376.823 505.08 376.72C505.303 376.545 505.577 376.446 505.86 376.44C505.998 376.433 506.136 376.462 506.261 376.523C506.385 376.585 506.491 376.677 506.569 376.792C506.647 376.906 506.695 377.039 506.707 377.177C506.72 377.315 506.697 377.453 506.64 377.58C506.57 378.06 506.53 378.53 506.5 379.01C506.47 379.49 506.45 379.95 506.41 380.39C507.246 379.505 508.19 378.729 509.22 378.08C510.265 377.405 511.386 376.854 512.56 376.44C513.709 376.029 514.905 375.764 516.12 375.65C517.253 375.537 518.397 375.642 519.49 375.96C520.542 376.282 521.509 376.836 522.32 377.58C523.233 378.428 523.92 379.49 524.32 380.67C524.783 381.98 525.013 383.361 525 384.75C524.991 386.143 524.782 387.527 524.38 388.86C523.983 390.188 523.401 391.454 522.65 392.62C521.913 393.773 520.998 394.802 519.94 395.67C518.962 396.449 517.903 397.12 516.78 397.67C515.674 398.222 514.506 398.638 513.3 398.91C512.106 399.181 510.884 399.301 509.66 399.27C508.433 399.241 507.216 399.049 506.04 398.7C506.04 400.787 506.087 402.873 506.18 404.96C506.273 407.047 506.337 409.157 506.37 411.29ZM522.17 381C521.801 379.954 521.098 379.058 520.17 378.45C519.278 377.924 518.265 377.638 517.23 377.62C516.092 377.598 514.96 377.784 513.89 378.17C512.744 378.567 511.646 379.093 510.62 379.74C509.614 380.365 508.693 381.118 507.88 381.98C507.15 382.726 506.57 383.606 506.17 384.57C506.07 386.57 506.003 388.547 505.97 390.5C505.97 392.5 505.97 394.43 505.97 396.42C506.99 396.778 508.052 397.003 509.13 397.09C510.231 397.19 511.34 397.15 512.43 396.97C513.524 396.795 514.59 396.475 515.6 396.02C516.645 395.55 517.618 394.933 518.49 394.19C519.375 393.399 520.152 392.495 520.8 391.5C521.463 390.48 521.981 389.373 522.34 388.21C522.691 387.045 522.873 385.836 522.88 384.62C522.883 383.378 522.642 382.148 522.17 381V381Z"
        fill="#BE1622" stroke="#BE1622" stroke-miterlimit="10" />
    <path
        d="M529.25 376C529.45 375.857 529.689 375.781 529.935 375.781C530.181 375.781 530.42 375.857 530.62 376C530.723 376.07 530.806 376.166 530.861 376.278C530.915 376.391 530.939 376.516 530.93 376.64C530.93 376.89 530.87 377.25 530.84 377.71C530.81 378.17 530.78 378.85 530.74 379.71C530.7 380.57 530.66 381.81 530.63 383.33C530.63 384.54 530.63 385.9 530.63 387.43C530.63 388.96 530.63 390.43 530.78 391.78C530.872 393.001 531.066 394.212 531.36 395.4C531.41 395.791 531.551 396.165 531.771 396.491C531.992 396.818 532.286 397.088 532.63 397.28C532.75 397.339 532.853 397.426 532.932 397.534C533.01 397.642 533.061 397.768 533.08 397.9C533.102 398.144 533.038 398.388 532.9 398.59C532.748 398.807 532.541 398.98 532.3 399.09C532.174 399.153 532.034 399.181 531.893 399.172C531.753 399.164 531.617 399.118 531.5 399.04C531.098 398.826 530.755 398.517 530.5 398.14C530.227 397.752 529.996 397.336 529.81 396.9C529.618 396.443 529.464 395.972 529.35 395.49C529.24 395 529.16 394.54 529.1 394.09C528.863 392.507 528.733 390.91 528.71 389.31C528.71 387.73 528.71 386.14 528.71 384.52C528.71 382.9 528.77 381.52 528.81 380.45C528.85 379.38 528.87 378.62 528.89 378.05C528.91 377.48 528.95 377 528.99 376.62C528.978 376.503 528.995 376.385 529.041 376.277C529.086 376.168 529.158 376.073 529.25 376V376ZM530.33 371.88C530.013 371.893 529.7 371.802 529.44 371.62C529.317 371.512 529.223 371.375 529.165 371.221C529.108 371.068 529.089 370.902 529.11 370.74C529.111 370.481 529.195 370.228 529.35 370.02C529.457 369.874 529.597 369.755 529.759 369.674C529.92 369.592 530.099 369.55 530.28 369.55C530.539 369.567 530.794 369.632 531.03 369.74C531.34 369.86 531.5 370.2 531.49 370.74C531.48 371.28 531.09 371.74 530.33 371.87V371.88Z"
        fill="#BE1622" stroke="#BE1622" stroke-miterlimit="10" />
    <path
        d="M550.39 387.63C548.54 387.88 546.667 387.911 544.81 387.72C542.917 387.529 541.054 387.113 539.26 386.48C539.173 387.844 539.392 389.211 539.9 390.48C540.428 391.813 541.24 393.014 542.28 394C543.216 394.917 544.301 395.668 545.49 396.22C546.591 396.732 547.778 397.03 548.99 397.1C550.181 397.163 551.374 396.993 552.5 396.6C553.698 396.173 554.801 395.517 555.75 394.67C555.845 394.556 555.967 394.468 556.105 394.413C556.243 394.359 556.393 394.341 556.54 394.36C556.807 394.411 557.052 394.544 557.24 394.74C557.427 394.945 557.542 395.204 557.57 395.48C557.58 395.628 557.56 395.776 557.51 395.915C557.46 396.055 557.382 396.182 557.28 396.29C555.714 397.578 553.879 398.497 551.91 398.98C550.928 399.217 549.92 399.328 548.91 399.31C547.891 399.294 546.88 399.125 545.91 398.81C544.75 398.393 543.653 397.817 542.65 397.1C541.634 396.375 540.719 395.517 539.93 394.55C539.142 393.578 538.499 392.496 538.02 391.34C537.538 390.161 537.274 388.904 537.24 387.63C537.17 386.063 537.457 384.5 538.08 383.06C539.27 380.252 541.467 377.991 544.24 376.72C545.574 376.081 547.031 375.74 548.51 375.72C549.724 375.742 550.929 375.934 552.09 376.29C553.347 376.642 554.534 377.206 555.6 377.96C556.582 378.64 557.357 379.578 557.84 380.67C558.068 381.273 558.16 381.919 558.11 382.562C558.06 383.205 557.869 383.829 557.55 384.39C556.684 385.452 555.537 386.249 554.24 386.69C552.992 387.133 551.702 387.448 550.39 387.63V387.63ZM541.59 381.2C541.149 381.678 540.763 382.205 540.44 382.77C540.144 383.302 539.899 383.861 539.71 384.44C541.477 384.986 543.287 385.384 545.12 385.63C546.985 385.885 548.881 385.787 550.71 385.34L552.04 385.06C552.629 384.926 553.21 384.759 553.78 384.56C554.325 384.37 554.838 384.096 555.3 383.75C555.5 383.614 555.665 383.433 555.782 383.221C555.898 383.009 555.963 382.772 555.97 382.53C555.994 381.91 555.792 381.302 555.4 380.82C555.008 380.335 554.534 379.922 554 379.6C553.432 379.271 552.832 379 552.21 378.79C551.59 378.59 551.05 378.44 550.59 378.34C548.985 377.926 547.296 377.978 545.72 378.49C544.134 379.025 542.712 379.959 541.59 381.2V381.2Z"
        fill="#BE1622" stroke="#BE1622" stroke-miterlimit="10" />
    <defs>
        <linearGradient id="paint0_linear_101_2" x1="nan" y1="nan" x2="nan" y2="nan" gradientUnits="userSpaceOnUse">
            <stop stop-color="#193D67" />
            <stop offset="1" stop-color="#005B6E" />
        </linearGradient>
        <linearGradient id="paint1_linear_101_2" x1="352.42" y1="112.56" x2="367.2" y2="112.56"
            gradientUnits="userSpaceOnUse">
            <stop stop-color="#193D67" />
            <stop offset="1" stop-color="#005B6E" />
        </linearGradient>
        <linearGradient id="paint2_linear_101_2" x1="133.95" y1="311.93" x2="204.97" y2="311.93"
            gradientUnits="userSpaceOnUse">
            <stop stop-color="#193D67" />
            <stop offset="1" stop-color="#005B6E" />
        </linearGradient>
        <linearGradient id="paint3_linear_101_2" x1="7.07999" y1="186.82" x2="177.47" y2="186.82"
            gradientUnits="userSpaceOnUse">
            <stop stop-color="#193D67" />
            <stop offset="1" stop-color="#005B6E" />
        </linearGradient>
        <linearGradient id="paint4_linear_101_2" x1="171.49" y1="185.52" x2="577.72" y2="185.52"
            gradientUnits="userSpaceOnUse">
            <stop stop-color="#193D67" />
            <stop offset="1" stop-color="#005B6E" />
        </linearGradient>
        <linearGradient id="paint5_linear_101_2" x1="392.75" y1="100.52" x2="590.72" y2="100.52"
            gradientUnits="userSpaceOnUse">
            <stop stop-color="#193D67" />
            <stop offset="1" stop-color="#005B6E" />
        </linearGradient>
        <linearGradient id="paint6_linear_101_2" x1="184.78" y1="315.68" x2="200.85" y2="315.68"
            gradientUnits="userSpaceOnUse">
            <stop stop-color="#005B6E" />
            <stop offset="1" stop-color="#193D67" />
        </linearGradient>
        <linearGradient id="paint7_linear_101_2" x1="184.53" y1="315.68" x2="201.1" y2="315.68"
            gradientUnits="userSpaceOnUse">
            <stop stop-color="#005B6E" />
            <stop offset="1" stop-color="#193D67" />
        </linearGradient>
        <linearGradient id="paint8_linear_101_2" x1="199.18" y1="314.17" x2="216.4" y2="314.17"
            gradientUnits="userSpaceOnUse">
            <stop stop-color="#005B6E" />
            <stop offset="1" stop-color="#193D67" />
        </linearGradient>
        <linearGradient id="paint9_linear_101_2" x1="198.93" y1="314.17" x2="216.65" y2="314.17"
            gradientUnits="userSpaceOnUse">
            <stop stop-color="#005B6E" />
            <stop offset="1" stop-color="#193D67" />
        </linearGradient>
        <linearGradient id="paint10_linear_101_2" x1="214.74" y1="314.17" x2="231.95" y2="314.17"
            gradientUnits="userSpaceOnUse">
            <stop stop-color="#005B6E" />
            <stop offset="1" stop-color="#193D67" />
        </linearGradient>
        <linearGradient id="paint11_linear_101_2" x1="214.49" y1="314.17" x2="232.2" y2="314.17"
            gradientUnits="userSpaceOnUse">
            <stop stop-color="#005B6E" />
            <stop offset="1" stop-color="#193D67" />
        </linearGradient>
        <linearGradient id="paint12_linear_101_2" x1="230.37" y1="313.13" x2="242.66" y2="313.13"
            gradientUnits="userSpaceOnUse">
            <stop stop-color="#005B6E" />
            <stop offset="1" stop-color="#193D67" />
        </linearGradient>
        <linearGradient id="paint13_linear_101_2" x1="230.12" y1="313.13" x2="242.91" y2="313.13"
            gradientUnits="userSpaceOnUse">
            <stop stop-color="#005B6E" />
            <stop offset="1" stop-color="#193D67" />
        </linearGradient>
        <linearGradient id="paint14_linear_101_2" x1="241.4" y1="315.43" x2="258.33" y2="315.43"
            gradientUnits="userSpaceOnUse">
            <stop stop-color="#005B6E" />
            <stop offset="1" stop-color="#193D67" />
        </linearGradient>
        <linearGradient id="paint15_linear_101_2" x1="241.15" y1="315.43" x2="258.58" y2="315.43"
            gradientUnits="userSpaceOnUse">
            <stop stop-color="#005B6E" />
            <stop offset="1" stop-color="#193D67" />
        </linearGradient>
        <linearGradient id="paint16_linear_101_2" x1="256.71" y1="316.02" x2="282.04" y2="316.02"
            gradientUnits="userSpaceOnUse">
            <stop stop-color="#005B6E" />
            <stop offset="1" stop-color="#193D67" />
        </linearGradient>
        <linearGradient id="paint17_linear_101_2" x1="256.46" y1="316.02" x2="282.29" y2="316.02"
            gradientUnits="userSpaceOnUse">
            <stop stop-color="#005B6E" />
            <stop offset="1" stop-color="#193D67" />
        </linearGradient>
        <linearGradient id="paint18_linear_101_2" x1="293.73" y1="305.3" x2="329.34" y2="305.3"
            gradientUnits="userSpaceOnUse">
            <stop stop-color="#005B6E" />
            <stop offset="1" stop-color="#193D67" />
        </linearGradient>
        <linearGradient id="paint19_linear_101_2" x1="293.48" y1="305.3" x2="329.59" y2="305.3"
            gradientUnits="userSpaceOnUse">
            <stop stop-color="#005B6E" />
            <stop offset="1" stop-color="#193D67" />
        </linearGradient>
        <linearGradient id="paint20_linear_101_2" x1="322.49" y1="315.43" x2="339.42" y2="315.43"
            gradientUnits="userSpaceOnUse">
            <stop stop-color="#005B6E" />
            <stop offset="1" stop-color="#193D67" />
        </linearGradient>
        <linearGradient id="paint21_linear_101_2" x1="322.24" y1="315.43" x2="339.67" y2="315.43"
            gradientUnits="userSpaceOnUse">
            <stop stop-color="#005B6E" />
            <stop offset="1" stop-color="#193D67" />
        </linearGradient>
        <linearGradient id="paint22_linear_101_2" x1="336.4" y1="306.19" x2="362.8" y2="306.19"
            gradientUnits="userSpaceOnUse">
            <stop stop-color="#005B6E" />
            <stop offset="1" stop-color="#193D67" />
        </linearGradient>
        <linearGradient id="paint23_linear_101_2" x1="336.15" y1="306.19" x2="363.05" y2="306.19"
            gradientUnits="userSpaceOnUse">
            <stop stop-color="#005B6E" />
            <stop offset="1" stop-color="#193D67" />
        </linearGradient>
        <linearGradient id="paint24_linear_101_2" x1="358.79" y1="315.59" x2="383.92" y2="315.59"
            gradientUnits="userSpaceOnUse">
            <stop stop-color="#005B6E" />
            <stop offset="1" stop-color="#193D67" />
        </linearGradient>
        <linearGradient id="paint25_linear_101_2" x1="358.54" y1="315.59" x2="384.17" y2="315.59"
            gradientUnits="userSpaceOnUse">
            <stop stop-color="#005B6E" />
            <stop offset="1" stop-color="#193D67" />
        </linearGradient>
        <linearGradient id="paint26_linear_101_2" x1="381.57" y1="315.68" x2="397.64" y2="315.68"
            gradientUnits="userSpaceOnUse">
            <stop stop-color="#005B6E" />
            <stop offset="1" stop-color="#193D67" />
        </linearGradient>
        <linearGradient id="paint27_linear_101_2" x1="381.32" y1="315.68" x2="397.89" y2="315.68"
            gradientUnits="userSpaceOnUse">
            <stop stop-color="#005B6E" />
            <stop offset="1" stop-color="#193D67" />
        </linearGradient>
        <linearGradient id="paint28_linear_101_2" x1="396.06" y1="313.13" x2="408.35" y2="313.13"
            gradientUnits="userSpaceOnUse">
            <stop stop-color="#005B6E" />
            <stop offset="1" stop-color="#193D67" />
        </linearGradient>
        <linearGradient id="paint29_linear_101_2" x1="395.81" y1="313.13" x2="408.6" y2="313.13"
            gradientUnits="userSpaceOnUse">
            <stop stop-color="#005B6E" />
            <stop offset="1" stop-color="#193D67" />
        </linearGradient>
        <linearGradient id="paint30_linear_101_2" x1="406.93" y1="315.76" x2="422.16" y2="315.76"
            gradientUnits="userSpaceOnUse">
            <stop stop-color="#005B6E" />
            <stop offset="1" stop-color="#193D67" />
        </linearGradient>
        <linearGradient id="paint31_linear_101_2" x1="406.68" y1="315.76" x2="422.44" y2="315.76"
            gradientUnits="userSpaceOnUse">
            <stop stop-color="#005B6E" />
            <stop offset="1" stop-color="#193D67" />
        </linearGradient>
        <linearGradient id="paint32_linear_101_2" x1="409.94" y1="337.39" x2="556.97" y2="337.39"
            gradientUnits="userSpaceOnUse">
            <stop stop-color="#193D67" />
            <stop offset="1" stop-color="#005B6E" />
        </linearGradient>
        <linearGradient id="paint33_linear_101_2" x1="377.63" y1="329.95" x2="425.17" y2="329.95"
            gradientUnits="userSpaceOnUse">
            <stop stop-color="#005B6E" />
            <stop offset="1" stop-color="#193D67" />
        </linearGradient>
        <linearGradient id="paint34_linear_101_2" x1="nan" y1="nan" x2="nan" y2="nan" gradientUnits="userSpaceOnUse">
            <stop stop-color="#193D67" />
            <stop offset="1" stop-color="#005B6E" />
        </linearGradient>
        <linearGradient id="paint35_linear_101_2" x1="232.29" y1="143" x2="250.89" y2="143"
            gradientUnits="userSpaceOnUse">
            <stop stop-color="#193D67" />
            <stop offset="1" stop-color="#005B6E" />
        </linearGradient>
        <linearGradient id="paint36_linear_101_2" x1="341.22" y1="43.21" x2="485.47" y2="43.21"
            gradientUnits="userSpaceOnUse">
            <stop stop-color="#193D67" />
            <stop offset="1" stop-color="#005B6E" />
        </linearGradient>
        <linearGradient id="paint37_linear_101_2" x1="388.83" y1="58.49" x2="460.53" y2="58.49"
            gradientUnits="userSpaceOnUse">
            <stop stop-color="#193D67" />
            <stop offset="1" stop-color="#005B6E" />
        </linearGradient>
        <linearGradient id="paint38_linear_101_2" x1="417.05" y1="100.13" x2="459.91" y2="100.13"
            gradientUnits="userSpaceOnUse">
            <stop stop-color="#193D67" />
            <stop offset="1" stop-color="#005B6E" />
        </linearGradient>
        <linearGradient id="paint39_linear_101_2" x1="501.05" y1="98.46" x2="543.91" y2="98.46"
            gradientUnits="userSpaceOnUse">
            <stop stop-color="#193D67" />
            <stop offset="1" stop-color="#005B6E" />
        </linearGradient>
        <linearGradient id="paint40_linear_101_2" x1="430.31" y1="99.96" x2="447.32" y2="99.96"
            gradientUnits="userSpaceOnUse">
            <stop stop-color="#193D67" />
            <stop offset="1" stop-color="#005B6E" />
        </linearGradient>
        <linearGradient id="paint41_linear_101_2" x1="427.81" y1="99.96" x2="449.82" y2="99.96"
            gradientUnits="userSpaceOnUse">
            <stop stop-color="#193D67" />
            <stop offset="1" stop-color="#005B6E" />
        </linearGradient>
        <linearGradient id="paint42_linear_101_2" x1="513.98" y1="98.63" x2="530.98" y2="98.63"
            gradientUnits="userSpaceOnUse">
            <stop stop-color="#193D67" />
            <stop offset="1" stop-color="#005B6E" />
        </linearGradient>
        <linearGradient id="paint43_linear_101_2" x1="511.48" y1="98.63" x2="533.48" y2="98.63"
            gradientUnits="userSpaceOnUse">
            <stop stop-color="#193D67" />
            <stop offset="1" stop-color="#005B6E" />
        </linearGradient>
    </defs>
</svg>